
<global>
amp_veltrack=0
ampeg_release=0.35
</global>

<group>
group_label=PP
xf_cccurve=gain
xfin_hicc1=42
xfout_hicc1=85
xfout_locc1=42

<region>
hikey=a#2
hivel=127
lokey=a2
loop_end=175025
loop_mode=loop_continuous
loop_start=38987
loop_xfade=17885
lovel=0
pitch_keycenter=a#2
sample=Horn_trill_whole_PP_A#2.opus
</region>

<region>
hikey=a#3
hivel=127
lokey=a3
loop_end=175050
loop_mode=loop_continuous
loop_start=38992
loop_xfade=17888
lovel=0
pitch_keycenter=a#3
sample=Horn_trill_whole_PP_A#3.opus
</region>

<region>
hikey=a#4
hivel=127
lokey=a4
loop_end=176744
loop_mode=loop_continuous
loop_start=39370
loop_xfade=18061
lovel=0
pitch_keycenter=a#4
sample=Horn_trill_whole_PP_A#4.opus
</region>

<region>
hikey=c3
hivel=127
lokey=b2
loop_end=174822
loop_mode=loop_continuous
loop_start=38941
loop_xfade=17865
lovel=0
pitch_keycenter=c3
sample=Horn_trill_whole_PP_C3.opus
</region>

<region>
hikey=c4
hivel=127
lokey=b3
loop_end=174083
loop_mode=loop_continuous
loop_start=38777
loop_xfade=17789
lovel=0
pitch_keycenter=c4
sample=Horn_trill_whole_PP_C4.opus
</region>

<region>
hikey=c5
hivel=127
lokey=b4
loop_end=175036
loop_mode=loop_continuous
loop_start=38989
loop_xfade=17886
lovel=0
pitch_keycenter=c5
sample=Horn_trill_whole_PP_C5.opus
</region>

<region>
hikey=d3
hivel=127
lokey=c#3
loop_end=176744
loop_mode=loop_continuous
loop_start=39370
loop_xfade=18061
lovel=0
pitch_keycenter=d3
sample=Horn_trill_whole_PP_D3.opus
</region>

<region>
hikey=d4
hivel=127
lokey=c#4
loop_end=175381
loop_mode=loop_continuous
loop_start=39066
loop_xfade=17922
lovel=0
pitch_keycenter=d4
sample=Horn_trill_whole_PP_D4.opus
</region>

<region>
hikey=d5
hivel=127
lokey=c#5
loop_end=175681
loop_mode=loop_continuous
loop_start=39133
loop_xfade=17952
lovel=0
pitch_keycenter=d5
sample=Horn_trill_whole_PP_D5.opus
</region>

<region>
hikey=e3
hivel=127
lokey=d#3
loop_end=176616
loop_mode=loop_continuous
loop_start=39341
loop_xfade=18048
lovel=0
pitch_keycenter=e3
sample=Horn_trill_whole_PP_E3.opus
</region>

<region>
hikey=e4
hivel=127
lokey=d#4
loop_end=174183
loop_mode=loop_continuous
loop_start=38799
loop_xfade=17799
lovel=0
pitch_keycenter=e4
sample=Horn_trill_whole_PP_E4.opus
</region>

<region>
hikey=e5
hivel=127
lokey=d#5
loop_end=220279
loop_mode=loop_continuous
loop_start=49067
loop_xfade=22510
lovel=0
pitch_keycenter=E5
sample=Horn_trill_whole_PP_E5.opus
</region>

<region>
hivel=127
key=f#2
loop_end=175295
loop_mode=loop_continuous
loop_start=39047
loop_xfade=17913
lovel=0
sample=Horn_trill_whole_PP_F#2.opus
</region>

<region>
hikey=f#3
hivel=127
lokey=f3
loop_end=176744
loop_mode=loop_continuous
loop_start=39370
loop_xfade=18061
lovel=0
pitch_keycenter=f#3
sample=Horn_trill_whole_PP_F#3.opus
</region>

<region>
hikey=f#4
hivel=127
lokey=f4
loop_end=175178
loop_mode=loop_continuous
loop_start=39021
loop_xfade=17901
lovel=0
pitch_keycenter=f#4
sample=Horn_trill_whole_PP_F#4.opus
</region>

<region>
hivel=127
key=F2
loop_end=175553
loop_mode=loop_continuous
loop_start=39104
loop_xfade=17939
lovel=0
sample=Horn_trill_whole_PP_F2.opus
</region>

<region>
hikey=g#2
hivel=127
lokey=g2
loop_end=173322
loop_mode=loop_continuous
loop_start=38607
loop_xfade=17711
lovel=0
pitch_keycenter=g#2
sample=Horn_trill_whole_PP_G#2.opus
</region>

<region>
hikey=g#3
hivel=127
lokey=g3
loop_end=175322
loop_mode=loop_continuous
loop_start=39053
loop_xfade=17916
lovel=0
pitch_keycenter=g#3
sample=Horn_trill_whole_PP_G#3.opus
</region>

<region>
hikey=g#4
hivel=127
lokey=g4
loop_end=176234
loop_mode=loop_continuous
loop_start=39256
loop_xfade=18009
lovel=0
pitch_keycenter=g#4
sample=Horn_trill_whole_PP_G#4.opus
</region>
</group>

<group>
group_label=MF
xf_cccurve=gain
xfin_hicc1=85
xfin_locc1=42
xfout_hicc1=127
xfout_locc1=85

<region>
hikey=a#2
hivel=127
lokey=a2
loop_end=174453
loop_mode=loop_continuous
loop_start=38859
loop_xfade=17827
lovel=0
pitch_keycenter=a#2
sample=Horn_trill_whole_MF_A#2.opus
</region>

<region>
hikey=a#3
hivel=127
lokey=a3
loop_end=175528
loop_mode=loop_continuous
loop_start=39099
loop_xfade=17937
lovel=0
pitch_keycenter=a#3
sample=Horn_trill_whole_MF_A#3.opus
</region>

<region>
hikey=a#4
hivel=127
lokey=a4
loop_end=175376
loop_mode=loop_continuous
loop_start=39065
loop_xfade=17921
lovel=0
pitch_keycenter=a#4
sample=Horn_trill_whole_MF_A#4.opus
</region>

<region>
hikey=c3
hivel=127
lokey=b2
loop_end=174217
loop_mode=loop_continuous
loop_start=38807
loop_xfade=17803
lovel=0
pitch_keycenter=c3
sample=Horn_trill_whole_MF_C3.opus
</region>

<region>
hikey=c4
hivel=127
lokey=b3
loop_end=176392
loop_mode=loop_continuous
loop_start=39291
loop_xfade=18025
lovel=0
pitch_keycenter=c4
sample=Horn_trill_whole_MF_C4.opus
</region>

<region>
hikey=c5
hivel=127
lokey=b4
loop_end=173970
loop_mode=loop_continuous
loop_start=38752
loop_xfade=17777
lovel=0
pitch_keycenter=c5
sample=Horn_trill_whole_MF_C5.opus
</region>

<region>
hikey=d3
hivel=127
lokey=c#3
loop_end=174573
loop_mode=loop_continuous
loop_start=38886
loop_xfade=17839
lovel=0
pitch_keycenter=d3
sample=Horn_trill_whole_MF_D3.opus
</region>

<region>
hikey=d4
hivel=127
lokey=c#4
loop_end=174245
loop_mode=loop_continuous
loop_start=38813
loop_xfade=17806
lovel=0
pitch_keycenter=d4
sample=Horn_trill_whole_MF_D4.opus
</region>

<region>
hikey=d5
hivel=127
lokey=c#5
loop_end=174485
loop_mode=loop_continuous
loop_start=38866
loop_xfade=17830
lovel=0
pitch_keycenter=d5
sample=Horn_trill_whole_MF_D5.opus
</region>

<region>
hikey=e3
hivel=127
lokey=d#3
loop_end=175254
loop_mode=loop_continuous
loop_start=39038
loop_xfade=17909
lovel=0
pitch_keycenter=e3
sample=Horn_trill_whole_MF_E3.opus
</region>

<region>
hikey=e4
hivel=127
lokey=d#4
loop_end=176518
loop_mode=loop_continuous
loop_start=39319
loop_xfade=18038
lovel=0
pitch_keycenter=e4
sample=Horn_trill_whole_MF_E4.opus
</region>

<region>
hikey=e5
hivel=127
lokey=d#5
loop_end=188617
loop_mode=loop_continuous
loop_start=42014
loop_xfade=19274
lovel=0
pitch_keycenter=E5
sample=Horn_trill_whole_MF_E5.opus
</region>

<region>
hivel=127
key=f#2
loop_end=168524
loop_mode=loop_continuous
loop_start=37539
loop_xfade=17221
lovel=0
sample=Horn_trill_whole_MF_F#2.opus
</region>

<region>
hikey=f#3
hivel=127
lokey=f3
loop_end=175283
loop_mode=loop_continuous
loop_start=39044
loop_xfade=17912
lovel=0
pitch_keycenter=f#3
sample=Horn_trill_whole_MF_F#3.opus
</region>

<region>
hikey=f#4
hivel=127
lokey=f4
loop_end=175363
loop_mode=loop_continuous
loop_start=39062
loop_xfade=17920
lovel=0
pitch_keycenter=f#4
sample=Horn_trill_whole_MF_F#4.opus
</region>

<region>
hivel=127
key=F2
loop_end=170848
loop_mode=loop_continuous
loop_start=38056
loop_xfade=17458
lovel=0
sample=Horn_trill_whole_MF_F2.opus
</region>

<region>
hikey=g#2
hivel=127
lokey=g2
loop_end=168951
loop_mode=loop_continuous
loop_start=37634
loop_xfade=17265
lovel=0
pitch_keycenter=g#2
sample=Horn_trill_whole_MF_G#2.opus
</region>

<region>
hikey=g#3
hivel=127
lokey=g3
loop_end=174999
loop_mode=loop_continuous
loop_start=38981
loop_xfade=17883
lovel=0
pitch_keycenter=g#3
sample=Horn_trill_whole_MF_G#3.opus
</region>

<region>
hikey=g#4
hivel=127
lokey=g4
loop_end=173653
loop_mode=loop_continuous
loop_start=38681
loop_xfade=17745
lovel=0
pitch_keycenter=g#4
sample=Horn_trill_whole_MF_G#4.opus
</region>
</group>

<group>
group_label=FF
xf_cccurve=gain
xfin_hicc1=127
xfin_locc1=85
xfout_hicc1=127
xfout_locc1=127

<region>
hikey=a#2
hivel=127
lokey=a2
loop_end=165338
loop_mode=loop_continuous
loop_start=36829
loop_xfade=16895
lovel=0
pitch_keycenter=a#2
sample=Horn_trill_whole_FF_A#2.opus
</region>

<region>
hikey=a#3
hivel=127
lokey=a3
loop_end=170660
loop_mode=loop_continuous
loop_start=38014
loop_xfade=17439
lovel=0
pitch_keycenter=a#3
sample=Horn_trill_whole_FF_A#3.opus
</region>

<region>
hikey=a#4
hivel=127
lokey=a4
loop_end=175937
loop_mode=loop_continuous
loop_start=39190
loop_xfade=17978
lovel=0
pitch_keycenter=a#4
sample=Horn_trill_whole_FF_A#4.opus
</region>

<region>
hikey=c3
hivel=127
lokey=b2
loop_end=175432
loop_mode=loop_continuous
loop_start=39077
loop_xfade=17927
lovel=0
pitch_keycenter=c3
sample=Horn_trill_whole_FF_C3.opus
</region>

<region>
hikey=c4
hivel=127
lokey=b3
loop_end=173041
loop_mode=loop_continuous
loop_start=38545
loop_xfade=17683
lovel=0
pitch_keycenter=c4
sample=Horn_trill_whole_FF_C4.opus
</region>

<region>
hikey=c5
hivel=127
lokey=b4
loop_end=176022
loop_mode=loop_continuous
loop_start=39209
loop_xfade=17987
lovel=0
pitch_keycenter=c5
sample=Horn_trill_whole_FF_C5.opus
</region>

<region>
hikey=d3
hivel=127
lokey=c#3
loop_end=169866
loop_mode=loop_continuous
loop_start=37838
loop_xfade=17358
lovel=0
pitch_keycenter=d3
sample=Horn_trill_whole_FF_D3.opus
</region>

<region>
hikey=d4
hivel=127
lokey=c#4
loop_end=166668
loop_mode=loop_continuous
loop_start=37125
loop_xfade=17031
lovel=0
pitch_keycenter=d4
sample=Horn_trill_whole_FF_D4.opus
</region>

<region>
hikey=d5
hivel=127
lokey=c#5
loop_end=147844
loop_mode=loop_continuous
loop_start=32932
loop_xfade=15108
lovel=0
pitch_keycenter=d5
sample=Horn_trill_whole_FF_D5.opus
</region>

<region>
hikey=e3
hivel=127
lokey=d#3
loop_end=174040
loop_mode=loop_continuous
loop_start=38767
loop_xfade=17785
lovel=0
pitch_keycenter=e3
sample=Horn_trill_whole_FF_E3.opus
</region>

<region>
hikey=e4
hivel=127
lokey=d#4
loop_end=168479
loop_mode=loop_continuous
loop_start=37529
loop_xfade=17216
lovel=0
pitch_keycenter=e4
sample=Horn_trill_whole_FF_E4.opus
</region>

<region>
hikey=e5
hivel=127
lokey=d#5
loop_end=168238
loop_mode=loop_continuous
loop_start=37475
loop_xfade=17192
lovel=0
pitch_keycenter=E5
sample=Horn_trill_whole_FF_E5.opus
</region>

<region>
hivel=127
key=f#2
loop_end=167773
loop_mode=loop_continuous
loop_start=37371
loop_xfade=17144
lovel=0
sample=Horn_trill_whole_FF_F#2.opus
</region>

<region>
hikey=f#3
hivel=127
lokey=f3
loop_end=174445
loop_mode=loop_continuous
loop_start=38857
loop_xfade=17826
lovel=0
pitch_keycenter=f#3
sample=Horn_trill_whole_FF_F#3.opus
</region>

<region>
hikey=f#4
hivel=127
lokey=f4
loop_end=170527
loop_mode=loop_continuous
loop_start=37985
loop_xfade=17426
lovel=0
pitch_keycenter=f#4
sample=Horn_trill_whole_FF_F#4.opus
</region>

<region>
hivel=127
key=F2
loop_end=173617
loop_mode=loop_continuous
loop_start=38673
loop_xfade=17741
lovel=0
sample=Horn_trill_whole_FF_F2.opus
</region>

<region>
hikey=g#2
hivel=127
lokey=g2
loop_end=170196
loop_mode=loop_continuous
loop_start=37911
loop_xfade=17392
lovel=0
pitch_keycenter=g#2
sample=Horn_trill_whole_FF_G#2.opus
</region>

<region>
hikey=g#3
hivel=127
lokey=g3
loop_end=172468
loop_mode=loop_continuous
loop_start=38417
loop_xfade=17624
lovel=0
pitch_keycenter=g#3
sample=Horn_trill_whole_FF_G#3.opus
</region>

<region>
hikey=g#4
hivel=127
lokey=g4
loop_end=166781
loop_mode=loop_continuous
loop_start=37150
loop_xfade=17043
lovel=0
pitch_keycenter=g#4
sample=Horn_trill_whole_FF_G#4.opus
</region>
</group>